<?xml version="1.0" standalone="no"?>
<!DOCTYPE svg PUBLIC "-//W3C//DTD SVG 20000303 Stylable//EN"
"http://www.w3.org/TR/2000/03/WD-SVG-20000303/DTD/svg-20000303-stylable.dtd">
<!-- Title: /home/xeder/tmp.lqnx -->
<!-- Creator: lqn2ps Version 5.9.2 -->
<!-- Tue Jun  2 21:23:16 2020 -->
<!-- For: xeder -->
<!-- Invoked as: lqn2ps -Osvg -o/home/xeder/Desktop/projects/swperf/spe-workspace/org.univaq.uml2lqn/result/output.svg /home/xeder/tmp.lqnx -->
<svg xmlns="http://www.w3.org/2000/svg" width="6.74in" height="5.25in" viewBox="0 0 12128 9450">
<desc> </desc>
<!-- Task Mobile-User r mobile-user-items -1 container-items -->
<polygon  fill="#ffffff" stroke="black" stroke-width="25" points="2.02e+03,450 1.91e+03,1.58e+03 3.59e+03,1.58e+03 3.71e+03,450 "/>
<text x="2807" y="1444" font-family="Times" font-style="Roman" font-size="225" fill="black" text-anchor="middle">Mobile-User</text>
<!-- Entry mobile-user-items s [15] -->
<polyline  stroke="black" stroke-width="25" fill="none" points="2.33e+03,450 2.27e+03,1.12e+03 3.32e+03,1.12e+03 3.39e+03,450 "/>
<text x="2829" y="1069" font-family="Times" font-style="Roman" font-size="225" fill="black" text-anchor="middle">Z=[0]</text>
<text x="2829" y="844" font-family="Times" font-style="Roman" font-size="225" fill="black" text-anchor="middle">[15]</text>
<text x="2829" y="619" font-family="Times" font-style="Roman" font-size="225" fill="black" text-anchor="middle">mobile-user-items</text>
<!-- Call mobile-user-items navigate-items-bes y (20) -->
<line x1="2.83e+03" y1="1.12e+03" x2="1.06e+03" y2="5.4e+03" stroke="black" stroke-width="25"/>
<polygon fill="black" stroke="black" stroke-width="25" points="1.06e+03,5.4e+03 1.16e+03,5.28e+03 1.11e+03,5.28e+03 1.07e+03,5.24e+03 "/>
<text x="1244" y="5044" font-family="Times" font-style="Roman" font-size="225" fill="black" text-anchor="middle">(20)</text>
<!-- Call Mobile-User container-items -->
<line x1="3.26e+03" y1="1.58e+03" x2="5.22e+03" y2="7.9e+03" stroke="black" stroke-width="25"/>
<polygon fill="black" stroke="black" stroke-width="25" points="5.22e+03,7.9e+03 5.23e+03,7.74e+03 5.18e+03,7.78e+03 5.13e+03,7.77e+03 "/>
<text x="3316" y="1919" font-family="Times" font-style="Roman" font-size="225" fill="black" text-anchor="middle"></text>
<!-- Task User r user-bes -1 container-web -->
<polygon  fill="#ffffff" stroke="black" stroke-width="25" points="5.28e+03,450 5.16e+03,1.58e+03 6.85e+03,1.58e+03 6.96e+03,450 "/>
<text x="6064" y="1444" font-family="Times" font-style="Roman" font-size="225" fill="black" text-anchor="middle">User</text>
<!-- Entry user-bes s [12] -->
<polyline  stroke="black" stroke-width="25" fill="none" points="5.59e+03,450 5.52e+03,1.12e+03 6.58e+03,1.12e+03 6.65e+03,450 "/>
<text x="6086" y="1069" font-family="Times" font-style="Roman" font-size="225" fill="black" text-anchor="middle">Z=[0]</text>
<text x="6086" y="844" font-family="Times" font-style="Roman" font-size="225" fill="black" text-anchor="middle">[12]</text>
<text x="6086" y="619" font-family="Times" font-style="Roman" font-size="225" fill="black" text-anchor="middle">user-bes</text>
<!-- Call user-bes web-bes y (202601) -->
<line x1="6.09e+03" y1="1.12e+03" x2="6.09e+03" y2="2.92e+03" stroke="black" stroke-width="25"/>
<polygon fill="black" stroke="black" stroke-width="25" points="6.09e+03,2.92e+03 6.14e+03,2.78e+03 6.09e+03,2.8e+03 6.04e+03,2.78e+03 "/>
<text x="6086" y="2569" font-family="Times" font-style="Roman" font-size="225" fill="black" text-anchor="middle">(2.03e+05)</text>
<!-- Call User container-web -->
<line x1="5.61e+03" y1="1.58e+03" x2="5.58e+03" y2="5.4e+03" stroke="black" stroke-width="25"/>
<polygon fill="black" stroke="black" stroke-width="25" points="5.58e+03,5.4e+03 5.64e+03,5.25e+03 5.59e+03,5.28e+03 5.54e+03,5.25e+03 "/>
<text x="5586" y="1919" font-family="Times" font-style="Roman" font-size="225" fill="black" text-anchor="middle"></text>
<!-- Task Warehouse worker r  -1 container-products -->
<polygon  fill="#ffffff" stroke="black" stroke-width="25" points="8.53e+03,450 8.42e+03,1.58e+03 1.01e+04,1.58e+03 1.02e+04,450 "/>
<text x="9321" y="1444" font-family="Times" font-style="Roman" font-size="225" fill="black" text-anchor="middle">Warehouse worker</text>
<!-- Entry  s [18] -->
<polyline  stroke="black" stroke-width="25" fill="none" points="8.85e+03,450 8.78e+03,1.12e+03 9.84e+03,1.12e+03 9.91e+03,450 "/>
<text x="9343" y="1069" font-family="Times" font-style="Roman" font-size="225" fill="black" text-anchor="middle">Z=[0]</text>
<text x="9343" y="844" font-family="Times" font-style="Roman" font-size="225" fill="black" text-anchor="middle">[18]</text>
<text x="9343" y="619" font-family="Times" font-style="Roman" font-size="225" fill="black" text-anchor="middle"></text>
<!-- Call  show-product-bes y (2000) -->
<line x1="9.34e+03" y1="1.12e+03" x2="1.11e+04" y2="5.4e+03" stroke="black" stroke-width="25"/>
<polygon fill="black" stroke="black" stroke-width="25" points="1.11e+04,5.4e+03 1.11e+04,5.24e+03 1.11e+04,5.28e+03 1.1e+04,5.28e+03 "/>
<text x="10928" y="5044" font-family="Times" font-style="Roman" font-size="225" fill="black" text-anchor="middle">(2e+03)</text>
<!-- Call Warehouse worker container-products -->
<line x1="8.87e+03" y1="1.58e+03" x2="6.91e+03" y2="7.9e+03" stroke="black" stroke-width="25"/>
<polygon fill="black" stroke="black" stroke-width="25" points="6.91e+03,7.9e+03 7e+03,7.77e+03 6.94e+03,7.78e+03 6.9e+03,7.74e+03 "/>
<text x="8778" y="1919" font-family="Times" font-style="Roman" font-size="225" fill="black" text-anchor="middle"></text>
<text x="6964" y="9094" font-family="Times" font-style="Roman" font-size="225" fill="black" text-anchor="middle"></text>
<!-- Task web n web-bes -1 container-web -->
<polygon  fill="#ffffff" stroke="black" stroke-width="25" points="5.28e+03,2.92e+03 5.16e+03,4.05e+03 6.85e+03,4.05e+03 6.96e+03,2.92e+03 "/>
<text x="6064" y="3919" font-family="Times" font-style="Roman" font-size="225" fill="black" text-anchor="middle">web</text>
<!-- Entry web-bes s [16] -->
<polyline  stroke="black" stroke-width="25" fill="none" points="5.59e+03,2.92e+03 5.52e+03,3.6e+03 6.58e+03,3.6e+03 6.65e+03,2.92e+03 "/>
<text x="6086" y="3544" font-family="Times" font-style="Roman" font-size="225" fill="black" text-anchor="middle">Z=[0]</text>
<text x="6086" y="3319" font-family="Times" font-style="Roman" font-size="225" fill="black" text-anchor="middle">[16]</text>
<text x="6086" y="3094" font-family="Times" font-style="Roman" font-size="225" fill="black" text-anchor="middle">web-bes</text>
<!-- Call web-bes item1-bes y (1903) -->
<line x1="5.68e+03" y1="3.6e+03" x2="2.12e+03" y2="5.4e+03" stroke="black" stroke-width="25"/>
<polygon fill="black" stroke="black" stroke-width="25" points="2.12e+03,5.4e+03 2.27e+03,5.38e+03 2.23e+03,5.34e+03 2.23e+03,5.29e+03 "/>
<text x="3007" y="5044" font-family="Times" font-style="Roman" font-size="225" fill="black" text-anchor="middle">(1.9e+03)</text>
<!-- Call web-bes item2-bes y (2890) -->
<line x1="5.85e+03" y1="3.6e+03" x2="3.17e+03" y2="5.4e+03" stroke="black" stroke-width="25"/>
<polygon fill="black" stroke="black" stroke-width="25" points="3.17e+03,5.4e+03 3.32e+03,5.36e+03 3.28e+03,5.33e+03 3.27e+03,5.27e+03 "/>
<text x="3841" y="5044" font-family="Times" font-style="Roman" font-size="225" fill="black" text-anchor="middle">(2.89e+03)</text>
<!-- Call web-bes item3-bes y (2089) -->
<line x1="6.01e+03" y1="3.6e+03" x2="4.23e+03" y2="5.4e+03" stroke="black" stroke-width="25"/>
<polygon fill="black" stroke="black" stroke-width="25" points="4.23e+03,5.4e+03 4.37e+03,5.33e+03 4.32e+03,5.31e+03 4.3e+03,5.26e+03 "/>
<text x="4674" y="5044" font-family="Times" font-style="Roman" font-size="225" fill="black" text-anchor="middle">(2.09e+03)</text>
<!-- Call web-bes cat-bes y (2605) -->
<line x1="6.17e+03" y1="3.6e+03" x2="7.29e+03" y2="5.4e+03" stroke="black" stroke-width="25"/>
<polygon fill="black" stroke="black" stroke-width="25" points="7.29e+03,5.4e+03 7.25e+03,5.25e+03 7.22e+03,5.29e+03 7.17e+03,5.3e+03 "/>
<text x="7009" y="5044" font-family="Times" font-style="Roman" font-size="225" fill="black" text-anchor="middle">(2.6e+03)</text>
<!-- Call web-bes prod1-bes y (1775) -->
<line x1="6.33e+03" y1="3.6e+03" x2="9e+03" y2="5.4e+03" stroke="black" stroke-width="25"/>
<polygon fill="black" stroke="black" stroke-width="25" points="9e+03,5.4e+03 8.9e+03,5.27e+03 8.9e+03,5.33e+03 8.85e+03,5.36e+03 "/>
<text x="8332" y="5044" font-family="Times" font-style="Roman" font-size="225" fill="black" text-anchor="middle">(1.78e+03)</text>
<!-- Call web-bes prod2-bes y (1700) -->
<line x1="6.49e+03" y1="3.6e+03" x2="1.01e+04" y2="5.4e+03" stroke="black" stroke-width="25"/>
<polygon fill="black" stroke="black" stroke-width="25" points="1.01e+04,5.4e+03 9.95e+03,5.29e+03 9.95e+03,5.34e+03 9.9e+03,5.38e+03 "/>
<text x="9165" y="5044" font-family="Times" font-style="Roman" font-size="225" fill="black" text-anchor="middle">(1.7e+03)</text>
<!-- Call web container-web -->
<line x1="5.61e+03" y1="4.05e+03" x2="5.59e+03" y2="5.4e+03" stroke="black" stroke-width="25"/>
<polygon fill="black" stroke="black" stroke-width="25" points="5.59e+03,5.4e+03 5.64e+03,5.25e+03 5.59e+03,5.28e+03 5.54e+03,5.25e+03 "/>
<text x="5548" y="4394" font-family="Times" font-style="Roman" font-size="225" fill="black" text-anchor="middle"></text>
<text x="11014" y="9094" font-family="Times" font-style="Roman" font-size="225" fill="black" text-anchor="middle"></text>
<!-- Task items n item3-bes item2-bes item1-bes navigate-items-bes -1 container-items -->
<polygon  fill="#ffffff" stroke="black" stroke-width="25" points="562,5.4e+03 450,6.52e+03 4.68e+03,6.52e+03 4.79e+03,5.4e+03 "/>
<text x="2621" y="6394" font-family="Times" font-style="Roman" font-size="225" fill="black" text-anchor="middle">items</text>
<!-- Entry navigate-items-bes s [15] -->
<polyline  stroke="black" stroke-width="25" fill="none" points="495,6.08e+03 1.55e+03,6.08e+03 1.62e+03,5.4e+03 "/>
<text x="1058" y="6019" font-family="Times" font-style="Roman" font-size="225" fill="black" text-anchor="middle">Z=[0]</text>
<text x="1058" y="5794" font-family="Times" font-style="Roman" font-size="225" fill="black" text-anchor="middle">[15]</text>
<text x="1058" y="5569" font-family="Times" font-style="Roman" font-size="225" fill="black" text-anchor="middle">navigate-items-bes</text>
<!-- Entry item1-bes s [15] -->
<polyline  stroke="black" stroke-width="25" fill="none" points="1.55e+03,6.08e+03 2.61e+03,6.08e+03 2.68e+03,5.4e+03 "/>
<text x="2115" y="6019" font-family="Times" font-style="Roman" font-size="225" fill="black" text-anchor="middle">Z=[0]</text>
<text x="2115" y="5794" font-family="Times" font-style="Roman" font-size="225" fill="black" text-anchor="middle">[15]</text>
<text x="2115" y="5569" font-family="Times" font-style="Roman" font-size="225" fill="black" text-anchor="middle">item1-bes</text>
<!-- Entry item2-bes s [14] -->
<polyline  stroke="black" stroke-width="25" fill="none" points="2.61e+03,6.08e+03 3.67e+03,6.08e+03 3.74e+03,5.4e+03 "/>
<text x="3173" y="6019" font-family="Times" font-style="Roman" font-size="225" fill="black" text-anchor="middle">Z=[0]</text>
<text x="3173" y="5794" font-family="Times" font-style="Roman" font-size="225" fill="black" text-anchor="middle">[14]</text>
<text x="3173" y="5569" font-family="Times" font-style="Roman" font-size="225" fill="black" text-anchor="middle">item2-bes</text>
<!-- Entry item3-bes s [16] -->
<line x1="3.67e+03" y1="6.08e+03" x2="4.72e+03" y2="6.08e+03" stroke="black" stroke-width="25"/>
<text x="4230" y="6019" font-family="Times" font-style="Roman" font-size="225" fill="black" text-anchor="middle">Z=[0]</text>
<text x="4230" y="5794" font-family="Times" font-style="Roman" font-size="225" fill="black" text-anchor="middle">[16]</text>
<text x="4230" y="5569" font-family="Times" font-style="Roman" font-size="225" fill="black" text-anchor="middle">item3-bes</text>
<!-- Call items container-items -->
<line x1="3.71e+03" y1="6.52e+03" x2="5.02e+03" y2="8.02e+03" stroke="black" stroke-width="25"/>
<polygon fill="black" stroke="black" stroke-width="25" points="5.02e+03,8.02e+03 4.96e+03,7.87e+03 4.93e+03,7.92e+03 4.88e+03,7.94e+03 "/>
<text x="3818" y="6869" font-family="Times" font-style="Roman" font-size="225" fill="black" text-anchor="middle"></text>
<!-- Processor container-web f -->
<circle cx="5580" cy="5963" r="563"  fill="#ffffff" stroke="black" stroke-width="25"/>
<text x="5580" y="6056" font-family="Times" font-style="Roman" font-size="225" fill="black" text-anchor="middle">container-web</text>
<!-- Task categories n cat-bes -1 container-categories -->
<polygon  fill="#ffffff" stroke="black" stroke-width="25" points="6.48e+03,5.4e+03 6.37e+03,6.52e+03 8.06e+03,6.52e+03 8.17e+03,5.4e+03 "/>
<text x="7268" y="6394" font-family="Times" font-style="Roman" font-size="225" fill="black" text-anchor="middle">categories</text>
<!-- Entry cat-bes s [24] -->
<polyline  stroke="black" stroke-width="25" fill="none" points="6.8e+03,5.4e+03 6.73e+03,6.08e+03 7.79e+03,6.08e+03 7.85e+03,5.4e+03 "/>
<text x="7290" y="6019" font-family="Times" font-style="Roman" font-size="225" fill="black" text-anchor="middle">Z=[0]</text>
<text x="7290" y="5794" font-family="Times" font-style="Roman" font-size="225" fill="black" text-anchor="middle">[24]</text>
<text x="7290" y="5569" font-family="Times" font-style="Roman" font-size="225" fill="black" text-anchor="middle">cat-bes</text>
<!-- Task products n show-product-bes prod2-bes prod1-bes -1 container-products -->
<polygon  fill="#ffffff" stroke="black" stroke-width="25" points="8.5e+03,5.4e+03 8.39e+03,6.52e+03 1.16e+04,6.52e+03 1.17e+04,5.4e+03 "/>
<text x="10035" y="6394" font-family="Times" font-style="Roman" font-size="225" fill="black" text-anchor="middle">products</text>
<!-- Entry prod1-bes s [20] -->
<polyline  stroke="black" stroke-width="25" fill="none" points="8.44e+03,6.08e+03 9.5e+03,6.08e+03 9.56e+03,5.4e+03 "/>
<text x="9000" y="6019" font-family="Times" font-style="Roman" font-size="225" fill="black" text-anchor="middle">Z=[0]</text>
<text x="9000" y="5794" font-family="Times" font-style="Roman" font-size="225" fill="black" text-anchor="middle">[20]</text>
<text x="9000" y="5569" font-family="Times" font-style="Roman" font-size="225" fill="black" text-anchor="middle">prod1-bes</text>
<!-- Entry prod2-bes s [16] -->
<polyline  stroke="black" stroke-width="25" fill="none" points="9.5e+03,6.08e+03 1.06e+04,6.08e+03 1.06e+04,5.4e+03 "/>
<text x="10058" y="6019" font-family="Times" font-style="Roman" font-size="225" fill="black" text-anchor="middle">Z=[0]</text>
<text x="10058" y="5794" font-family="Times" font-style="Roman" font-size="225" fill="black" text-anchor="middle">[16]</text>
<text x="10058" y="5569" font-family="Times" font-style="Roman" font-size="225" fill="black" text-anchor="middle">prod2-bes</text>
<!-- Entry show-product-bes s [18] -->
<line x1="1.06e+04" y1="6.08e+03" x2="1.16e+04" y2="6.08e+03" stroke="black" stroke-width="25"/>
<text x="11115" y="6019" font-family="Times" font-style="Roman" font-size="225" fill="black" text-anchor="middle">Z=[0]</text>
<text x="11115" y="5794" font-family="Times" font-style="Roman" font-size="225" fill="black" text-anchor="middle">[18]</text>
<text x="11115" y="5569" font-family="Times" font-style="Roman" font-size="225" fill="black" text-anchor="middle">show-product-bes</text>
<!-- Call products container-products -->
<line x1="9.21e+03" y1="6.52e+03" x2="7.18e+03" y2="8.09e+03" stroke="black" stroke-width="25"/>
<polygon fill="black" stroke="black" stroke-width="25" points="7.18e+03,8.09e+03 7.33e+03,8.04e+03 7.28e+03,8.02e+03 7.27e+03,7.96e+03 "/>
<text x="8907" y="6869" font-family="Times" font-style="Roman" font-size="225" fill="black" text-anchor="middle"></text>
<text x="1586" y="9094" font-family="Times" font-style="Roman" font-size="225" fill="black" text-anchor="middle"></text>
<!-- Processor container-items f -->
<circle cx="5389" cy="8438" r="563"  fill="#ffffff" stroke="black" stroke-width="25"/>
<text x="5389" y="8531" font-family="Times" font-style="Roman" font-size="225" fill="black" text-anchor="middle">container-items</text>
<!-- Processor container-products f -->
<circle cx="6739" cy="8438" r="563"  fill="#ffffff" stroke="black" stroke-width="25"/>
<text x="6739" y="8531" font-family="Times" font-style="Roman" font-size="225" fill="black" text-anchor="middle">container-products</text>
<text x="10339" y="9094" font-family="Times" font-style="Roman" font-size="225" fill="black" text-anchor="middle"></text>
</svg>
